<mxfile host="Electron" agent="Mozilla/5.0 (X11; Linux x86_64) AppleWebKit/537.36 (KHTML, like Gecko) draw.io/24.7.17 Chrome/128.0.6613.36 Electron/32.0.1 Safari/537.36" version="24.7.17">
  <diagram name="Page-1" id="rCcRhmTFQw-V1xAxfxcF">
    <mxGraphModel dx="1533" dy="391" grid="1" gridSize="10" guides="1" tooltips="1" connect="1" arrows="1" fold="1" page="1" pageScale="1" pageWidth="850" pageHeight="1100" math="0" shadow="0">
      <root>
        <mxCell id="0" />
        <mxCell id="1" parent="0" />
        <mxCell id="1AzPgfrqJzYGGkcJpN8c-66" value="" style="rounded=0;whiteSpace=wrap;html=1;fillColor=#d80073;fontColor=#ffffff;strokeColor=#A50040;" vertex="1" parent="1">
          <mxGeometry x="510" y="655" width="120" height="60" as="geometry" />
        </mxCell>
        <mxCell id="1AzPgfrqJzYGGkcJpN8c-65" value="" style="rounded=0;whiteSpace=wrap;html=1;fillColor=#d80073;fontColor=#ffffff;strokeColor=#A50040;" vertex="1" parent="1">
          <mxGeometry x="520" y="665" width="120" height="60" as="geometry" />
        </mxCell>
        <mxCell id="1AzPgfrqJzYGGkcJpN8c-64" value="" style="shape=note;whiteSpace=wrap;html=1;backgroundOutline=1;darkOpacity=0.05;fillColor=#6a00ff;fontColor=#ffffff;strokeColor=#3700CC;" vertex="1" parent="1">
          <mxGeometry x="275" y="180" width="80" height="100" as="geometry" />
        </mxCell>
        <mxCell id="1AzPgfrqJzYGGkcJpN8c-62" value="" style="shape=note;whiteSpace=wrap;html=1;backgroundOutline=1;darkOpacity=0.05;fillColor=#6a00ff;fontColor=#ffffff;strokeColor=#3700CC;" vertex="1" parent="1">
          <mxGeometry x="280" y="190" width="80" height="100" as="geometry" />
        </mxCell>
        <mxCell id="1AzPgfrqJzYGGkcJpN8c-57" value="" style="shape=umlActor;verticalLabelPosition=bottom;verticalAlign=top;html=1;outlineConnect=0;fillColor=#a20025;fontColor=#ffffff;strokeColor=#6F0000;" vertex="1" parent="1">
          <mxGeometry x="285" y="350" width="30" height="60" as="geometry" />
        </mxCell>
        <mxCell id="1AzPgfrqJzYGGkcJpN8c-56" value="" style="shape=umlActor;verticalLabelPosition=bottom;verticalAlign=top;html=1;outlineConnect=0;fillColor=#a20025;fontColor=#ffffff;strokeColor=#6F0000;" vertex="1" parent="1">
          <mxGeometry x="300" y="360" width="30" height="60" as="geometry" />
        </mxCell>
        <mxCell id="1AzPgfrqJzYGGkcJpN8c-1" value="&lt;font color=&quot;#cc0000&quot;&gt;LLM Users&lt;/font&gt;" style="shape=umlActor;verticalLabelPosition=bottom;verticalAlign=top;html=1;outlineConnect=0;fillColor=#a20025;fontColor=#ffffff;strokeColor=#6F0000;" vertex="1" parent="1">
          <mxGeometry x="315" y="370" width="30" height="60" as="geometry" />
        </mxCell>
        <mxCell id="1AzPgfrqJzYGGkcJpN8c-7" value="" style="shape=note;whiteSpace=wrap;html=1;backgroundOutline=1;darkOpacity=0.05;fillColor=#6a00ff;fontColor=#ffffff;strokeColor=#3700CC;" vertex="1" parent="1">
          <mxGeometry x="410" y="200" width="80" height="100" as="geometry" />
        </mxCell>
        <mxCell id="1AzPgfrqJzYGGkcJpN8c-8" value="user&lt;div&gt;instructions&lt;/div&gt;" style="text;html=1;align=center;verticalAlign=middle;whiteSpace=wrap;rounded=0;fillColor=#6a00ff;fontColor=#ffffff;strokeColor=#3700CC;" vertex="1" parent="1">
          <mxGeometry x="410" y="230" width="80" height="30" as="geometry" />
        </mxCell>
        <mxCell id="1AzPgfrqJzYGGkcJpN8c-9" value="" style="shape=note;whiteSpace=wrap;html=1;backgroundOutline=1;darkOpacity=0.05;fillColor=#6a00ff;fontColor=#ffffff;strokeColor=#3700CC;" vertex="1" parent="1">
          <mxGeometry x="530" y="200" width="80" height="100" as="geometry" />
        </mxCell>
        <mxCell id="1AzPgfrqJzYGGkcJpN8c-10" value="moderator&lt;div&gt;instructions&lt;/div&gt;" style="text;html=1;align=center;verticalAlign=middle;whiteSpace=wrap;rounded=0;fillColor=#6a00ff;fontColor=#ffffff;strokeColor=#3700CC;" vertex="1" parent="1">
          <mxGeometry x="530" y="230" width="80" height="30" as="geometry" />
        </mxCell>
        <mxCell id="1AzPgfrqJzYGGkcJpN8c-11" value="" style="shape=note;whiteSpace=wrap;html=1;backgroundOutline=1;darkOpacity=0.05;fillColor=#6a00ff;fontColor=#ffffff;strokeColor=#3700CC;" vertex="1" parent="1">
          <mxGeometry x="650" y="200" width="80" height="100" as="geometry" />
        </mxCell>
        <mxCell id="1AzPgfrqJzYGGkcJpN8c-12" value="conversation&lt;div&gt;configurations&lt;/div&gt;" style="text;html=1;align=center;verticalAlign=middle;whiteSpace=wrap;rounded=0;fillColor=#6a00ff;fontColor=#ffffff;strokeColor=#3700CC;" vertex="1" parent="1">
          <mxGeometry x="650" y="230" width="80" height="30" as="geometry" />
        </mxCell>
        <mxCell id="1AzPgfrqJzYGGkcJpN8c-13" value="" style="shape=note;whiteSpace=wrap;html=1;backgroundOutline=1;darkOpacity=0.05;fillColor=#6a00ff;fontColor=#ffffff;strokeColor=#3700CC;" vertex="1" parent="1">
          <mxGeometry x="770" y="200" width="80" height="100" as="geometry" />
        </mxCell>
        <mxCell id="1AzPgfrqJzYGGkcJpN8c-14" value="topics" style="text;html=1;align=center;verticalAlign=middle;whiteSpace=wrap;rounded=0;fillColor=#6a00ff;fontColor=#ffffff;strokeColor=#3700CC;" vertex="1" parent="1">
          <mxGeometry x="780" y="230" width="60" height="30" as="geometry" />
        </mxCell>
        <mxCell id="1AzPgfrqJzYGGkcJpN8c-15" value="" style="shape=note;whiteSpace=wrap;html=1;backgroundOutline=1;darkOpacity=0.05;fillColor=#6a00ff;fontColor=#ffffff;strokeColor=#3700CC;" vertex="1" parent="1">
          <mxGeometry x="290" y="200" width="80" height="100" as="geometry" />
        </mxCell>
        <mxCell id="1AzPgfrqJzYGGkcJpN8c-16" value="personas" style="text;html=1;align=center;verticalAlign=middle;whiteSpace=wrap;rounded=0;fillColor=#6a00ff;fontColor=#ffffff;strokeColor=#3700CC;" vertex="1" parent="1">
          <mxGeometry x="300" y="230" width="60" height="30" as="geometry" />
        </mxCell>
        <mxCell id="1AzPgfrqJzYGGkcJpN8c-17" value="" style="ellipse;whiteSpace=wrap;html=1;aspect=fixed;fillColor=#60a917;fontColor=#ffffff;strokeColor=#2D7600;" vertex="1" parent="1">
          <mxGeometry x="360" y="20" width="80" height="80" as="geometry" />
        </mxCell>
        <mxCell id="1AzPgfrqJzYGGkcJpN8c-18" value="Intent" style="text;html=1;align=center;verticalAlign=middle;whiteSpace=wrap;rounded=0;fillColor=#60a917;fontColor=#ffffff;strokeColor=#2D7600;" vertex="1" parent="1">
          <mxGeometry x="370" y="45" width="60" height="30" as="geometry" />
        </mxCell>
        <mxCell id="1AzPgfrqJzYGGkcJpN8c-19" value="" style="ellipse;whiteSpace=wrap;html=1;aspect=fixed;fillColor=#60a917;fontColor=#ffffff;strokeColor=#2D7600;" vertex="1" parent="1">
          <mxGeometry x="470" y="20" width="80" height="80" as="geometry" />
        </mxCell>
        <mxCell id="1AzPgfrqJzYGGkcJpN8c-20" value="Age" style="text;html=1;align=center;verticalAlign=middle;whiteSpace=wrap;rounded=0;fillColor=#60a917;fontColor=#ffffff;strokeColor=#2D7600;" vertex="1" parent="1">
          <mxGeometry x="480" y="45" width="60" height="30" as="geometry" />
        </mxCell>
        <mxCell id="1AzPgfrqJzYGGkcJpN8c-21" value="" style="ellipse;whiteSpace=wrap;html=1;aspect=fixed;fillColor=#60a917;fontColor=#ffffff;strokeColor=#2D7600;" vertex="1" parent="1">
          <mxGeometry x="580" y="20" width="80" height="80" as="geometry" />
        </mxCell>
        <mxCell id="1AzPgfrqJzYGGkcJpN8c-22" value="Education" style="text;html=1;align=center;verticalAlign=middle;whiteSpace=wrap;rounded=0;fillColor=#60a917;fontColor=#ffffff;strokeColor=#2D7600;" vertex="1" parent="1">
          <mxGeometry x="590" y="45" width="60" height="30" as="geometry" />
        </mxCell>
        <mxCell id="1AzPgfrqJzYGGkcJpN8c-23" value="" style="ellipse;whiteSpace=wrap;html=1;aspect=fixed;fillColor=#60a917;fontColor=#ffffff;strokeColor=#2D7600;" vertex="1" parent="1">
          <mxGeometry x="250" y="20" width="80" height="80" as="geometry" />
        </mxCell>
        <mxCell id="1AzPgfrqJzYGGkcJpN8c-24" value="Personality" style="text;html=1;align=center;verticalAlign=middle;whiteSpace=wrap;rounded=0;fillColor=#60a917;fontColor=#ffffff;strokeColor=#2D7600;" vertex="1" parent="1">
          <mxGeometry x="260" y="45" width="60" height="30" as="geometry" />
        </mxCell>
        <mxCell id="1AzPgfrqJzYGGkcJpN8c-25" value="" style="ellipse;whiteSpace=wrap;html=1;aspect=fixed;fillColor=#60a917;fontColor=#ffffff;strokeColor=#2D7600;" vertex="1" parent="1">
          <mxGeometry x="140" y="20" width="80" height="80" as="geometry" />
        </mxCell>
        <mxCell id="1AzPgfrqJzYGGkcJpN8c-26" value="Emotional&lt;div&gt;state&lt;/div&gt;" style="text;html=1;align=center;verticalAlign=middle;whiteSpace=wrap;rounded=0;fillColor=#60a917;fontColor=#ffffff;strokeColor=#2D7600;" vertex="1" parent="1">
          <mxGeometry x="150" y="45" width="60" height="30" as="geometry" />
        </mxCell>
        <mxCell id="1AzPgfrqJzYGGkcJpN8c-32" value="" style="endArrow=classic;html=1;rounded=0;" edge="1" parent="1" source="1AzPgfrqJzYGGkcJpN8c-25" target="1AzPgfrqJzYGGkcJpN8c-64">
          <mxGeometry width="50" height="50" relative="1" as="geometry">
            <mxPoint x="210" y="160" as="sourcePoint" />
            <mxPoint x="260" y="110" as="targetPoint" />
          </mxGeometry>
        </mxCell>
        <mxCell id="1AzPgfrqJzYGGkcJpN8c-33" value="" style="endArrow=classic;html=1;rounded=0;" edge="1" parent="1" source="1AzPgfrqJzYGGkcJpN8c-23" target="1AzPgfrqJzYGGkcJpN8c-64">
          <mxGeometry width="50" height="50" relative="1" as="geometry">
            <mxPoint x="210" y="160" as="sourcePoint" />
            <mxPoint x="260" y="110" as="targetPoint" />
          </mxGeometry>
        </mxCell>
        <mxCell id="1AzPgfrqJzYGGkcJpN8c-34" value="" style="endArrow=classic;html=1;rounded=0;" edge="1" parent="1" source="1AzPgfrqJzYGGkcJpN8c-17" target="1AzPgfrqJzYGGkcJpN8c-15">
          <mxGeometry width="50" height="50" relative="1" as="geometry">
            <mxPoint x="210" y="160" as="sourcePoint" />
            <mxPoint x="260" y="110" as="targetPoint" />
          </mxGeometry>
        </mxCell>
        <mxCell id="1AzPgfrqJzYGGkcJpN8c-37" value="" style="endArrow=classic;html=1;rounded=0;exitX=0.347;exitY=1.089;exitDx=0;exitDy=0;exitPerimeter=0;" edge="1" parent="1" source="1AzPgfrqJzYGGkcJpN8c-20" target="1AzPgfrqJzYGGkcJpN8c-15">
          <mxGeometry width="50" height="50" relative="1" as="geometry">
            <mxPoint x="100" y="56" as="sourcePoint" />
            <mxPoint x="300" y="226" as="targetPoint" />
          </mxGeometry>
        </mxCell>
        <mxCell id="1AzPgfrqJzYGGkcJpN8c-38" value="" style="endArrow=classic;html=1;rounded=0;" edge="1" parent="1" source="1AzPgfrqJzYGGkcJpN8c-21" target="1AzPgfrqJzYGGkcJpN8c-15">
          <mxGeometry width="50" height="50" relative="1" as="geometry">
            <mxPoint x="501" y="48" as="sourcePoint" />
            <mxPoint x="378" y="210" as="targetPoint" />
          </mxGeometry>
        </mxCell>
        <mxCell id="1AzPgfrqJzYGGkcJpN8c-39" value="" style="endArrow=classic;html=1;rounded=0;" edge="1" parent="1" source="1AzPgfrqJzYGGkcJpN8c-15" target="1AzPgfrqJzYGGkcJpN8c-1">
          <mxGeometry width="50" height="50" relative="1" as="geometry">
            <mxPoint x="210" y="360" as="sourcePoint" />
            <mxPoint x="260" y="310" as="targetPoint" />
          </mxGeometry>
        </mxCell>
        <mxCell id="1AzPgfrqJzYGGkcJpN8c-43" value="" style="endArrow=classic;html=1;rounded=0;" edge="1" parent="1" source="1AzPgfrqJzYGGkcJpN8c-7" target="1AzPgfrqJzYGGkcJpN8c-1">
          <mxGeometry width="50" height="50" relative="1" as="geometry">
            <mxPoint x="310" y="360" as="sourcePoint" />
            <mxPoint x="360" y="310" as="targetPoint" />
          </mxGeometry>
        </mxCell>
        <mxCell id="1AzPgfrqJzYGGkcJpN8c-44" value="" style="rounded=0;whiteSpace=wrap;html=1;fillColor=#d80073;fontColor=#ffffff;strokeColor=#A50040;" vertex="1" parent="1">
          <mxGeometry x="530" y="675" width="120" height="60" as="geometry" />
        </mxCell>
        <mxCell id="1AzPgfrqJzYGGkcJpN8c-45" value="&lt;font color=&quot;#000066&quot;&gt;LLM Moderator&lt;/font&gt;" style="shape=umlActor;verticalLabelPosition=bottom;verticalAlign=top;html=1;outlineConnect=0;fillColor=#0050ef;fontColor=#ffffff;strokeColor=#001DBC;" vertex="1" parent="1">
          <mxGeometry x="555" y="370" width="30" height="60" as="geometry" />
        </mxCell>
        <mxCell id="1AzPgfrqJzYGGkcJpN8c-46" value="" style="endArrow=classic;html=1;rounded=0;" edge="1" parent="1" source="1AzPgfrqJzYGGkcJpN8c-9" target="1AzPgfrqJzYGGkcJpN8c-45">
          <mxGeometry width="50" height="50" relative="1" as="geometry">
            <mxPoint x="420" y="410" as="sourcePoint" />
            <mxPoint x="470" y="360" as="targetPoint" />
          </mxGeometry>
        </mxCell>
        <mxCell id="1AzPgfrqJzYGGkcJpN8c-47" value="" style="endArrow=classic;html=1;rounded=0;" edge="1" parent="1" source="1AzPgfrqJzYGGkcJpN8c-13" target="1AzPgfrqJzYGGkcJpN8c-67">
          <mxGeometry width="50" height="50" relative="1" as="geometry">
            <mxPoint x="420" y="410" as="sourcePoint" />
            <mxPoint x="730" y="600" as="targetPoint" />
          </mxGeometry>
        </mxCell>
        <mxCell id="1AzPgfrqJzYGGkcJpN8c-48" value="" style="endArrow=classic;html=1;rounded=0;" edge="1" parent="1" source="1AzPgfrqJzYGGkcJpN8c-11" target="1AzPgfrqJzYGGkcJpN8c-67">
          <mxGeometry width="50" height="50" relative="1" as="geometry">
            <mxPoint x="679" y="310" as="sourcePoint" />
            <mxPoint x="592" y="520" as="targetPoint" />
          </mxGeometry>
        </mxCell>
        <mxCell id="1AzPgfrqJzYGGkcJpN8c-49" value="" style="endArrow=classic;html=1;rounded=0;" edge="1" parent="1" source="1AzPgfrqJzYGGkcJpN8c-45" target="1AzPgfrqJzYGGkcJpN8c-67">
          <mxGeometry width="50" height="50" relative="1" as="geometry">
            <mxPoint x="420" y="410" as="sourcePoint" />
            <mxPoint x="470" y="360" as="targetPoint" />
          </mxGeometry>
        </mxCell>
        <mxCell id="1AzPgfrqJzYGGkcJpN8c-50" value="" style="endArrow=classic;html=1;rounded=0;" edge="1" parent="1" source="1AzPgfrqJzYGGkcJpN8c-1" target="1AzPgfrqJzYGGkcJpN8c-67">
          <mxGeometry width="50" height="50" relative="1" as="geometry">
            <mxPoint x="420" y="410" as="sourcePoint" />
            <mxPoint x="470" y="360" as="targetPoint" />
          </mxGeometry>
        </mxCell>
        <mxCell id="1AzPgfrqJzYGGkcJpN8c-51" value="Experiments" style="text;html=1;align=center;verticalAlign=middle;whiteSpace=wrap;rounded=0;" vertex="1" parent="1">
          <mxGeometry x="550" y="690" width="90" height="30" as="geometry" />
        </mxCell>
        <mxCell id="1AzPgfrqJzYGGkcJpN8c-52" value="&lt;font color=&quot;#009900&quot; style=&quot;font-size: 20px;&quot;&gt;&lt;b style=&quot;&quot;&gt;Participant SDBs&amp;nbsp;&lt;/b&gt;&lt;/font&gt;&lt;div style=&quot;font-size: 20px;&quot;&gt;&lt;font color=&quot;#009900&quot; style=&quot;font-size: 20px;&quot;&gt;&lt;b style=&quot;&quot;&gt;(Conceptual)&lt;/b&gt;&lt;/font&gt;&lt;/div&gt;" style="text;html=1;align=center;verticalAlign=middle;whiteSpace=wrap;rounded=0;" vertex="1" parent="1">
          <mxGeometry x="-100" y="30" width="260" height="80" as="geometry" />
        </mxCell>
        <mxCell id="1AzPgfrqJzYGGkcJpN8c-53" value="&lt;span style=&quot;font-size: 20px;&quot;&gt;&lt;b style=&quot;&quot;&gt;&lt;font color=&quot;#330066&quot;&gt;Configuration Files&lt;/font&gt;&lt;/b&gt;&lt;/span&gt;" style="text;html=1;align=center;verticalAlign=middle;whiteSpace=wrap;rounded=0;" vertex="1" parent="1">
          <mxGeometry x="-90" y="200" width="260" height="80" as="geometry" />
        </mxCell>
        <mxCell id="1AzPgfrqJzYGGkcJpN8c-54" value="&lt;span style=&quot;font-size: 20px;&quot;&gt;&lt;b style=&quot;&quot;&gt;&lt;font color=&quot;#000000&quot;&gt;SDL Actors&lt;/font&gt;&lt;/b&gt;&lt;/span&gt;" style="text;html=1;align=center;verticalAlign=middle;whiteSpace=wrap;rounded=0;" vertex="1" parent="1">
          <mxGeometry x="-90" y="360" width="260" height="80" as="geometry" />
        </mxCell>
        <mxCell id="1AzPgfrqJzYGGkcJpN8c-55" value="&lt;span style=&quot;font-size: 20px;&quot;&gt;&lt;b style=&quot;&quot;&gt;&lt;font color=&quot;#ff0080&quot;&gt;Experiment Setup&lt;/font&gt;&lt;/b&gt;&lt;/span&gt;" style="text;html=1;align=center;verticalAlign=middle;whiteSpace=wrap;rounded=0;" vertex="1" parent="1">
          <mxGeometry x="-90" y="655" width="260" height="80" as="geometry" />
        </mxCell>
        <mxCell id="1AzPgfrqJzYGGkcJpN8c-60" value="&lt;font color=&quot;#009900&quot; style=&quot;font-size: 35px;&quot;&gt;&lt;span style=&quot;font-size: 35px;&quot;&gt;&lt;b style=&quot;font-size: 35px;&quot;&gt;...&lt;/b&gt;&lt;/span&gt;&lt;/font&gt;" style="text;html=1;align=center;verticalAlign=middle;whiteSpace=wrap;rounded=0;fontSize=35;" vertex="1" parent="1">
          <mxGeometry x="670" y="45" width="30" height="30" as="geometry" />
        </mxCell>
        <mxCell id="1AzPgfrqJzYGGkcJpN8c-67" value="" style="shape=cube;whiteSpace=wrap;html=1;boundedLbl=1;backgroundOutline=1;darkOpacity=0.05;darkOpacity2=0.1;" vertex="1" parent="1">
          <mxGeometry x="500" y="520" width="140" height="80" as="geometry" />
        </mxCell>
        <mxCell id="1AzPgfrqJzYGGkcJpN8c-68" value="SDF experiment generation script" style="text;html=1;align=center;verticalAlign=middle;whiteSpace=wrap;rounded=0;" vertex="1" parent="1">
          <mxGeometry x="520" y="540" width="120" height="60" as="geometry" />
        </mxCell>
        <mxCell id="1AzPgfrqJzYGGkcJpN8c-69" value="" style="endArrow=classic;html=1;rounded=0;" edge="1" parent="1" source="1AzPgfrqJzYGGkcJpN8c-67" target="1AzPgfrqJzYGGkcJpN8c-66">
          <mxGeometry width="50" height="50" relative="1" as="geometry">
            <mxPoint x="410" y="590" as="sourcePoint" />
            <mxPoint x="460" y="540" as="targetPoint" />
          </mxGeometry>
        </mxCell>
      </root>
    </mxGraphModel>
  </diagram>
</mxfile>
